<svg xmlns="http://www.w3.org/2000/svg" version="1.1" xmlns:xlink="http://www.w3.org/1999/xlink" xmlns:svgjs="http://svgjs.dev/svgjs" width="1440" height="560" preserveAspectRatio="none" viewBox="0 0 1440 560"><g mask="url(&quot;#SvgjsMask8653&quot;)" fill="none"><rect width="1440" height="560" x="0" y="0" fill="url(&quot;#SvgjsLinearGradient8654&quot;)"></rect><path d="M121.58 371.88L203.86 419.38L203.86 514.38L121.58 561.88L39.31 514.38L39.31 419.38zM532.96 -55.62L615.23 -8.12L615.23 86.88L532.96 134.38L450.68 86.88L450.68 -8.12zM615.23 86.88L697.51 134.38L697.51 229.38L615.23 276.88L532.96 229.38L532.96 134.38zM532.96 514.38L615.23 561.88L615.23 656.88L532.96 704.38L450.68 656.88L450.68 561.88zM779.78 86.88L862.06 134.38L862.06 229.38L779.78 276.88L697.51 229.38L697.51 134.38zM862.06 229.38L944.33 276.88L944.33 371.88L862.06 419.38L779.78 371.88L779.78 276.88zM862.06 514.38L944.33 561.88L944.33 656.88L862.06 704.38L779.78 656.88L779.78 561.88zM1026.61 -55.62L1108.88 -8.12L1108.88 86.88L1026.61 134.38L944.33 86.88L944.33 -8.12zM1108.88 86.88L1191.16 134.38L1191.16 229.38L1108.88 276.88L1026.61 229.38L1026.61 134.38zM1026.61 514.38L1108.88 561.88L1108.88 656.88L1026.61 704.38L944.33 656.88L944.33 561.88zM1191.16 514.38L1273.43 561.88L1273.43 656.88L1191.16 704.38L1108.88 656.88L1108.88 561.88zM1437.98 86.88L1520.26 134.38L1520.26 229.38L1437.98 276.88L1355.71 229.38L1355.71 134.38zM1355.71 229.38L1437.98 276.88L1437.98 371.88L1355.71 419.38L1273.43 371.88L1273.43 276.88zM1437.98 371.88L1520.26 419.38L1520.26 514.38L1437.98 561.88L1355.71 514.38L1355.71 419.38zM1355.71 514.38L1437.98 561.88L1437.98 656.88L1355.71 704.38L1273.43 656.88L1273.43 561.88z" stroke="url(&quot;#SvgjsLinearGradient8655&quot;)" stroke-width="2"></path><path d="M112.08 371.88 a9.5 9.5 0 1 0 19 0 a9.5 9.5 0 1 0 -19 0zM194.36 419.38 a9.5 9.5 0 1 0 19 0 a9.5 9.5 0 1 0 -19 0zM194.36 514.38 a9.5 9.5 0 1 0 19 0 a9.5 9.5 0 1 0 -19 0zM112.08 561.88 a9.5 9.5 0 1 0 19 0 a9.5 9.5 0 1 0 -19 0zM29.81 514.38 a9.5 9.5 0 1 0 19 0 a9.5 9.5 0 1 0 -19 0zM29.81 419.38 a9.5 9.5 0 1 0 19 0 a9.5 9.5 0 1 0 -19 0zM523.46 -55.62 a9.5 9.5 0 1 0 19 0 a9.5 9.5 0 1 0 -19 0zM605.73 -8.12 a9.5 9.5 0 1 0 19 0 a9.5 9.5 0 1 0 -19 0zM605.73 86.88 a9.5 9.5 0 1 0 19 0 a9.5 9.5 0 1 0 -19 0zM523.46 134.38 a9.5 9.5 0 1 0 19 0 a9.5 9.5 0 1 0 -19 0zM441.18 86.88 a9.5 9.5 0 1 0 19 0 a9.5 9.5 0 1 0 -19 0zM441.18 -8.12 a9.5 9.5 0 1 0 19 0 a9.5 9.5 0 1 0 -19 0zM688.01 134.38 a9.5 9.5 0 1 0 19 0 a9.5 9.5 0 1 0 -19 0zM688.01 229.38 a9.5 9.5 0 1 0 19 0 a9.5 9.5 0 1 0 -19 0zM605.73 276.88 a9.5 9.5 0 1 0 19 0 a9.5 9.5 0 1 0 -19 0zM523.46 229.38 a9.5 9.5 0 1 0 19 0 a9.5 9.5 0 1 0 -19 0zM523.46 514.38 a9.5 9.5 0 1 0 19 0 a9.5 9.5 0 1 0 -19 0zM605.73 561.88 a9.5 9.5 0 1 0 19 0 a9.5 9.5 0 1 0 -19 0zM605.73 656.88 a9.5 9.5 0 1 0 19 0 a9.5 9.5 0 1 0 -19 0zM523.46 704.38 a9.5 9.5 0 1 0 19 0 a9.5 9.5 0 1 0 -19 0zM441.18 656.88 a9.5 9.5 0 1 0 19 0 a9.5 9.5 0 1 0 -19 0zM441.18 561.88 a9.5 9.5 0 1 0 19 0 a9.5 9.5 0 1 0 -19 0zM770.28 86.88 a9.5 9.5 0 1 0 19 0 a9.5 9.5 0 1 0 -19 0zM852.56 134.38 a9.5 9.5 0 1 0 19 0 a9.5 9.5 0 1 0 -19 0zM852.56 229.38 a9.5 9.5 0 1 0 19 0 a9.5 9.5 0 1 0 -19 0zM770.28 276.88 a9.5 9.5 0 1 0 19 0 a9.5 9.5 0 1 0 -19 0zM934.83 276.88 a9.5 9.5 0 1 0 19 0 a9.5 9.5 0 1 0 -19 0zM934.83 371.88 a9.5 9.5 0 1 0 19 0 a9.5 9.5 0 1 0 -19 0zM852.56 419.38 a9.5 9.5 0 1 0 19 0 a9.5 9.5 0 1 0 -19 0zM770.28 371.88 a9.5 9.5 0 1 0 19 0 a9.5 9.5 0 1 0 -19 0zM852.56 514.38 a9.5 9.5 0 1 0 19 0 a9.5 9.5 0 1 0 -19 0zM934.83 561.88 a9.5 9.5 0 1 0 19 0 a9.5 9.5 0 1 0 -19 0zM934.83 656.88 a9.5 9.5 0 1 0 19 0 a9.5 9.5 0 1 0 -19 0zM852.56 704.38 a9.5 9.5 0 1 0 19 0 a9.5 9.5 0 1 0 -19 0zM770.28 656.88 a9.5 9.5 0 1 0 19 0 a9.5 9.5 0 1 0 -19 0zM770.28 561.88 a9.5 9.5 0 1 0 19 0 a9.5 9.5 0 1 0 -19 0zM1017.11 -55.62 a9.5 9.5 0 1 0 19 0 a9.5 9.5 0 1 0 -19 0zM1099.38 -8.12 a9.5 9.5 0 1 0 19 0 a9.5 9.5 0 1 0 -19 0zM1099.38 86.88 a9.5 9.5 0 1 0 19 0 a9.5 9.5 0 1 0 -19 0zM1017.11 134.38 a9.5 9.5 0 1 0 19 0 a9.5 9.5 0 1 0 -19 0zM934.83 86.88 a9.5 9.5 0 1 0 19 0 a9.5 9.5 0 1 0 -19 0zM934.83 -8.12 a9.5 9.5 0 1 0 19 0 a9.5 9.5 0 1 0 -19 0zM1181.66 134.38 a9.5 9.5 0 1 0 19 0 a9.5 9.5 0 1 0 -19 0zM1181.66 229.38 a9.5 9.5 0 1 0 19 0 a9.5 9.5 0 1 0 -19 0zM1099.38 276.88 a9.5 9.5 0 1 0 19 0 a9.5 9.5 0 1 0 -19 0zM1017.11 229.38 a9.5 9.5 0 1 0 19 0 a9.5 9.5 0 1 0 -19 0zM1017.11 514.38 a9.5 9.5 0 1 0 19 0 a9.5 9.5 0 1 0 -19 0zM1099.38 561.88 a9.5 9.5 0 1 0 19 0 a9.5 9.5 0 1 0 -19 0zM1099.38 656.88 a9.5 9.5 0 1 0 19 0 a9.5 9.5 0 1 0 -19 0zM1017.11 704.38 a9.5 9.5 0 1 0 19 0 a9.5 9.5 0 1 0 -19 0zM1181.66 514.38 a9.5 9.5 0 1 0 19 0 a9.5 9.5 0 1 0 -19 0zM1263.93 561.88 a9.5 9.5 0 1 0 19 0 a9.5 9.5 0 1 0 -19 0zM1263.93 656.88 a9.5 9.5 0 1 0 19 0 a9.5 9.5 0 1 0 -19 0zM1181.66 704.38 a9.5 9.5 0 1 0 19 0 a9.5 9.5 0 1 0 -19 0zM1428.48 86.88 a9.5 9.5 0 1 0 19 0 a9.5 9.5 0 1 0 -19 0zM1510.76 134.38 a9.5 9.5 0 1 0 19 0 a9.5 9.5 0 1 0 -19 0zM1510.76 229.38 a9.5 9.5 0 1 0 19 0 a9.5 9.5 0 1 0 -19 0zM1428.48 276.88 a9.5 9.5 0 1 0 19 0 a9.5 9.5 0 1 0 -19 0zM1346.21 229.38 a9.5 9.5 0 1 0 19 0 a9.5 9.5 0 1 0 -19 0zM1346.21 134.38 a9.5 9.5 0 1 0 19 0 a9.5 9.5 0 1 0 -19 0zM1428.48 371.88 a9.5 9.5 0 1 0 19 0 a9.5 9.5 0 1 0 -19 0zM1346.21 419.38 a9.5 9.5 0 1 0 19 0 a9.5 9.5 0 1 0 -19 0zM1263.93 371.88 a9.5 9.5 0 1 0 19 0 a9.5 9.5 0 1 0 -19 0zM1263.93 276.88 a9.5 9.5 0 1 0 19 0 a9.5 9.5 0 1 0 -19 0zM1510.76 419.38 a9.5 9.5 0 1 0 19 0 a9.5 9.5 0 1 0 -19 0zM1510.76 514.38 a9.5 9.5 0 1 0 19 0 a9.5 9.5 0 1 0 -19 0zM1428.48 561.88 a9.5 9.5 0 1 0 19 0 a9.5 9.5 0 1 0 -19 0zM1346.21 514.38 a9.5 9.5 0 1 0 19 0 a9.5 9.5 0 1 0 -19 0zM1428.48 656.88 a9.5 9.5 0 1 0 19 0 a9.5 9.5 0 1 0 -19 0zM1346.21 704.38 a9.5 9.5 0 1 0 19 0 a9.5 9.5 0 1 0 -19 0z" fill="url(&quot;#SvgjsLinearGradient8655&quot;)"></path><path d="M62.5 47.95L105.81 72.95L105.81 122.95L62.5 147.95L19.2 122.95L19.2 72.95zM62.5 497.95L105.81 522.95L105.81 572.95L62.5 597.95L19.2 572.95L19.2 522.95zM149.11 197.95L192.41 222.95L192.41 272.95L149.11 297.95L105.81 272.95L105.81 222.95zM149.11 497.95L192.41 522.95L192.41 572.95L149.11 597.95L105.81 572.95L105.81 522.95zM192.41 -27.05L235.71 -2.05L235.71 47.95L192.41 72.95L149.11 47.95L149.11 -2.05zM192.41 422.95L235.71 447.95L235.71 497.95L192.41 522.95L149.11 497.95L149.11 447.95zM279.01 422.95L322.32 447.95L322.32 497.95L279.01 522.95L235.71 497.95L235.71 447.95zM322.32 497.95L365.62 522.95L365.62 572.95L322.32 597.95L279.01 572.95L279.01 522.95zM365.62 122.95L408.92 147.95L408.92 197.95L365.62 222.95L322.32 197.95L322.32 147.95zM408.92 497.95L452.23 522.95L452.23 572.95L408.92 597.95L365.62 572.95L365.62 522.95zM538.83 122.95L582.13 147.95L582.13 197.95L538.83 222.95L495.53 197.95L495.53 147.95zM538.83 422.95L582.13 447.95L582.13 497.95L538.83 522.95L495.53 497.95L495.53 447.95zM582.13 497.95L625.44 522.95L625.44 572.95L582.13 597.95L538.83 572.95L538.83 522.95zM625.44 122.95L668.74 147.95L668.74 197.95L625.44 222.95L582.13 197.95L582.13 147.95zM668.74 497.95L712.04 522.95L712.04 572.95L668.74 597.95L625.44 572.95L625.44 522.95zM712.04 122.95L755.34 147.95L755.34 197.95L712.04 222.95L668.74 197.95L668.74 147.95zM755.34 347.95L798.65 372.95L798.65 422.95L755.34 447.95L712.04 422.95L712.04 372.95zM971.86 -27.05L1015.16 -2.05L1015.16 47.95L971.86 72.95L928.55 47.95L928.55 -2.05zM1015.16 47.95L1058.46 72.95L1058.46 122.95L1015.16 147.95L971.86 122.95L971.86 72.95zM971.86 122.95L1015.16 147.95L1015.16 197.95L971.86 222.95L928.55 197.95L928.55 147.95zM1015.16 347.95L1058.46 372.95L1058.46 422.95L1015.16 447.95L971.86 422.95L971.86 372.95zM971.86 422.95L1015.16 447.95L1015.16 497.95L971.86 522.95L928.55 497.95L928.55 447.95zM1101.76 47.95L1145.07 72.95L1145.07 122.95L1101.76 147.95L1058.46 122.95L1058.46 72.95zM1145.07 122.95L1188.37 147.95L1188.37 197.95L1145.07 222.95L1101.76 197.95L1101.76 147.95zM1188.37 197.95L1231.67 222.95L1231.67 272.95L1188.37 297.95L1145.07 272.95L1145.07 222.95zM1231.67 272.95L1274.97 297.95L1274.97 347.95L1231.67 372.95L1188.37 347.95L1188.37 297.95zM1318.28 122.95L1361.58 147.95L1361.58 197.95L1318.28 222.95L1274.97 197.95L1274.97 147.95zM1361.58 197.95L1404.88 222.95L1404.88 272.95L1361.58 297.95L1318.28 272.95L1318.28 222.95zM1448.18 347.95L1491.49 372.95L1491.49 422.95L1448.18 447.95L1404.88 422.95L1404.88 372.95zM1404.88 422.95L1448.18 447.95L1448.18 497.95L1404.88 522.95L1361.58 497.95L1361.58 447.95z" stroke="url(&quot;#SvgjsRadialGradient8656&quot;)" stroke-width="2"></path></g><defs><mask id="SvgjsMask8653"><rect width="1440" height="560" fill="#ffffff"></rect></mask><linearGradient x1="15.28%" y1="-39.29%" x2="84.72%" y2="139.29%" gradientUnits="userSpaceOnUse" id="SvgjsLinearGradient8654"><stop stop-color="rgba(230, 219, 225, 1)" offset="0.75"></stop><stop stop-color="rgba(255, 250, 232, 1)" offset="1"></stop></linearGradient><linearGradient x1="220.03199999999998" y1="-220.02399999999997" x2="1219.9679999999998" y2="780.024" gradientUnits="userSpaceOnUse" id="SvgjsLinearGradient8655"><stop stop-color="rgba(214, 222, 229, 1)" offset="0.75"></stop><stop stop-color="rgba(214, 222, 229, 1)" offset="0.82"></stop><stop stop-color="rgba(214, 222, 229, 1)" offset="0.94"></stop><stop stop-color="rgba(214, 222, 229, 1)" offset="1"></stop></linearGradient><radialGradient cx="720" cy="280" r="772.53" gradientUnits="userSpaceOnUse" id="SvgjsRadialGradient8656"><stop stop-color="rgba(232, 235, 239, 1)" offset="0.32"></stop><stop stop-color="rgba(232, 235, 239, 1)" offset="0.85"></stop><stop stop-color="rgba(157, 172, 188, 1)" offset="1"></stop><stop stop-color="rgba(232, 235, 239, 1)" offset="1"></stop></radialGradient></defs></svg>